<?xml version="1.0" encoding="utf-8"?>
<svg version="1.1" id="Layer_1" xmlns="http://www.w3.org/2000/svg" x="0px" y="0px" width="100%" viewBox="0 0 278 164" enable-background="new 0 0 278 164">
  <path fill="#013856" opacity="1.000000" stroke="none" d=" M4.970301,160.973251 C14.714003,148.765442 28.490932,142.890198 42.312485,136.997177 C49.962357,133.735550 56.320568,128.686951 61.308952,121.236618 C67.425713,114.766960 69.221146,107.705605 66.706886,99.774437 C65.427460,95.738518 63.529598,91.898643 61.911301,87.970154 C61.607132,83.210884 60.920563,78.437416 61.096485,73.695961 C61.311928,67.889290 62.249557,62.109406 62.971195,55.426525 C54.362114,48.027435 46.135674,38.759922 40.867508,27.275877 C38.376167,21.845018 36.504234,16.129343 34.368618,10.536237 C33.171551,7.401159 34.223408,5.667498 37.563965,5.004182 C65.620232,-0.566794 91.230888,4.533512 113.394325,23.091305 C119.508255,28.210596 124.847557,34.391708 129.891785,40.613049 C134.846130,46.723545 134.933929,54.077831 131.367325,60.808414 C124.094543,74.532982 124.822372,87.677345 134.371170,99.582451 C143.572845,111.054771 159.088120,114.627197 173.053329,108.445213 C179.844574,105.438934 186.411789,102.670265 194.056549,102.929802 C202.132767,103.203972 209.263977,105.849525 214.753220,111.508705 C218.577209,115.451080 223.047836,116.171768 227.887985,117.050812 C240.371155,119.317970 252.535599,117.400116 264.660187,114.476349 C264.760712,114.879288 264.861267,115.282219 264.961823,115.685150 C259.418304,117.113976 253.947357,119.153061 248.313614,119.822914 C240.624176,120.737198 232.755615,120.152870 225.069244,121.082504 C219.679657,121.734352 214.520935,124.103104 209.158951,125.227448 C203.417114,126.431419 197.538925,127.936264 191.753311,127.808823 C171.180313,127.355667 153.082993,134.130554 136.263855,145.289490 C117.833305,157.517548 97.590118,161.317429 75.906784,157.994690 C66.086517,156.489838 56.368908,153.871887 46.506092,153.194016 C32.497898,152.231216 18.975193,155.430664 5.692034,161.238007 C5.254665,161.270508 4.970301,160.973251 4.970301,160.973251 z"/>
  <path fill="#012a40" opacity="1.000000" stroke="none" d="M 58.026 117.598 C 53.901 112.212 49.696 106.399 45.248 100.59 C 31.959 102.314 18.028 101.788 3.775 96.662 C 14.947 91.366 25.786 87.443 37.614 87.028 C 42.455 86.858 56.662 87.289 61.933 87.802 C 62.827 92.239 53.771 95.898 54.453 99.783 C 55.476 105.604 56.848 111.805 58.026 117.598 Z"/>
  <path fill="#012a40" opacity="1.000000" stroke="none" d="M 57.966 117.498 C 56.768 111.377 55.343 105.604 54.32 99.783 C 53.638 95.898 53.048 91.873 52.571 87.508 C 55.267 87.346 58.919 87.756 62.03 88.032 C 64.058 91.956 65.427 95.739 66.707 99.774 C 69.221 107.706 67.526 115.106 61.364 121.223 C 60.058 120.293 58.972 118.889 57.966 117.498 Z"/>
  <path fill="#949494" opacity="1.000000" stroke="none" d=" M5.378225,161.434937 C5.104384,161.658173 4.706982,161.716949 4.309580,161.775742 C4.345500,161.544174 4.381420,161.312622 4.693820,161.027161 C4.970301,160.973251 5.254665,161.270508 5.378225,161.434937 z"/>
</svg>