<?xml version="1.0" encoding="utf-8"?>
<svg xmlns="http://www.w3.org/2000/svg" viewBox="5.046 61.67 394.855 182.969" xmlns:bx="https://boxy-svg.com">
  <path opacity="1.000000" stroke="none" d="M 6.574 220.217 C 16.318 208.009 30.095 202.134 43.917 196.241 C 51.566 192.979 57.925 187.93 62.913 180.48 C 69.03 174.01 70.825 166.949 68.311 159.018 C 67.032 154.982 65.134 151.142 63.515 147.214 C 63.211 142.454 62.525 137.681 62.701 132.939 C 62.916 127.133 63.854 121.353 64.575 114.67 C 55.966 107.271 47.74 98.003 42.472 86.519 C 39.98 81.088 38.108 75.373 35.973 69.78 C 34.776 66.645 35.827 64.911 39.168 64.248 C 67.224 58.677 92.835 63.777 114.998 82.335 C 121.112 87.454 126.452 93.635 131.496 99.856 C 136.45 105.967 136.538 113.321 132.971 120.052 C 125.699 133.776 126.426 146.921 135.975 158.826 C 145.177 170.298 160.692 173.871 174.657 167.689 C 181.449 164.682 188.016 161.914 195.661 162.173 C 203.737 162.447 210.868 165.093 216.357 170.752 C 220.181 174.694 216.865 175.623 221.676 176.737 C 227.577 178.104 249.864 178.112 264.494 176.929 C 267.847 176.658 271.502 176.393 275.615 175.228 C 278.973 174.277 279.219 174.101 284.797 171.851 C 284.898 172.254 279.539 174.908 277.128 175.701 C 273.618 176.683 270.64 177.469 264.616 178.12 C 256.866 178.957 231.088 179.808 223.537 180.535 C 218.134 181.055 216.125 183.346 210.763 184.471 C 205.021 185.675 199.143 187.18 193.357 187.052 C 172.784 186.599 154.687 193.374 137.868 204.533 C 119.437 216.761 99.194 220.561 77.511 217.238 C 67.691 215.733 57.973 213.115 48.11 212.437 C 34.102 211.475 20.579 214.674 7.296 220.481 C 6.859 220.514 6.574 220.217 6.574 220.217 Z" style="fill: rgb(255, 255, 255);"/>
  <path opacity="1.000000" stroke="none" d="M 59.63 176.841 C 55.505 171.455 51.3 165.642 46.852 159.833 C 33.563 161.557 19.632 161.031 5.379 155.905 C 16.551 150.609 27.39 146.686 39.218 146.271 C 44.059 146.101 58.266 146.532 63.537 147.045 C 64.431 151.482 55.375 155.141 56.057 159.026 C 57.08 164.847 58.452 171.048 59.63 176.841 Z" style="fill: #e4e4e7;"/>
  <path opacity="1.000000" stroke="none" d="M 59.57 176.741 C 58.372 170.62 56.947 164.847 55.924 159.026 C 55.242 155.141 54.652 151.116 54.175 146.751 C 56.871 146.589 60.523 146.999 63.634 147.275 C 65.662 151.199 67.031 154.982 68.311 159.017 C 70.825 166.949 69.13 174.349 62.968 180.466 C 61.662 179.536 60.576 178.132 59.57 176.741 Z" style="fill: #e4e4e7;"/>
  <text style="fill: rgb(255, 255, 255); font-family: Pacifico; font-size: 94px; white-space: pre;" x="156.488" y="242.308">avocet</text>
  <defs>
    <style bx:fonts="Pacifico">@import url(https://fonts.googleapis.com/css2?family=Pacifico%3Aital%2Cwght%400%2C400&amp;display=swap);</style>
  </defs>
</svg>