<?xml version="1.0" encoding="utf-8"?>
<svg xmlns="http://www.w3.org/2000/svg" version="1.1" viewBox="4.633 11.506 90.783 76.887">
  <path d="m70.281 18.438c-0.035156-2.0547-3.0898-2.0547-3.125 0 0.035156 2.0547 3.0898 2.0547 3.125 0z"/>
  <path d="m53.23 42.598c-1.8945-0.78516-3.1016 2-1.2539 2.8633 4.1523 2.0039 2.4219 5.4492-2.3242 8.7656-3.0195 2.1523-6.5898 3.4297-10.609 3.793-2.043 0.22266-1.7617 3.2695 0.28516 3.1133 9.4297-0.11719 26.105-11.844 13.902-18.535z"/>
  <path d="m95.258 32.57c-0.15234-0.55078-0.58984-0.97656-1.1445-1.1055-1.9766-0.46875-4.2891-1.5664-6.8828-3.2578-1.7305-1.1016-3.4062 1.4844-1.707 2.6172 1.0469 0.68359 2.0469 1.2773 3.0078 1.7812-2.582-0.10156-8.6562-3.4297-13.883-9.3438l-0.10938-0.70312 0.86719-0.17188c0.9375 0.95312 2.8828 2.8594 5.3672 4.9141 1.5898 1.2891 3.5586-1.0781 1.9922-2.4062-2.6016-2.1484-4.5977-4.1523-5.3477-4.9219-0.25-1.5-1.2695-5.3438-5.2578-7.418-6.2305-3.4414-16.094 2.918-14.75 10.293 0.61719 4.5469 3.6133 9.8008 5.9922 13.441-5.2461 0.24219-13.023 1.0508-20.297 3.5078-12.758 4.8242-19.945 10.914-37.066 13.234-0.69922 0.097656-1.2461 0.64844-1.3359 1.3477-0.089844 0.69922 0.29688 1.375 0.94922 1.6445 0.12109 0.050781 2.9141 1.207 6.9023 2.0586 2.0078 3.2266 13.883 13.324 30.195 11.656 0.83984 2.0977 2.7969 3.7344 5.1562 4.0117l1.2734 11.508h-6.1875c-2.0352 0.011719-2.0664 3.1016 0 3.125 8.2656 0.015626 20.145-0.011718 28.453 0 2.0547-0.050781 2.0586-3.082 0-3.125h-11.406l-1.5-13.57c3.4648-0.89062 4.1797-4.5625 3.8086-7.2891 14.504-7.2266 19.484-22.707 10.668-36.172 0.39453-0.23828 0.82031-0.52734 1.2539-0.86719 5.5469 5.4922 10.609 8.3477 15.078 8.4844 3.7422-0.003906 6.3672-1.543 5.918-3.2656zm-42.938 52.68-1.2891-11.648c1.3906-0.38281 2.2422-1.168 2.7383-1.8516 0.26953-0.62891 1.0547 0.13672 1.6328 0.078125l1.4844 13.418h-4.5664zm4.457-16.453c-1.25-0.035156-2.1328 0.019531-1.8594-1.3633 1.5625-0.48047 3.0156-1 4.3594-1.5664-0.019532 0.94141-0.20312 1.7266-0.58203 2.1953-0.14062 0.17578-0.57031 0.70703-1.918 0.73438zm12.684-40.238c11.012 14.816 1.8672 31.062-14.98 35.742-0.16406-0.94922-1.082-1.5703-2.0117-1.2969-0.82422 0.24609-1.293 1.1172-1.0508 1.9453 0.33984 1.5234 1.332 5.7969-2.1406 5.7656-3.3516 0.30859-4.2695-3.2812-4.2148-4.7383-0.19141-2.4766-3.6367-1.8594-3.0938 0.64453-12.719 0.69141-20.605-4.3477-24.43-7.8086 1.9531 0.17969 3.9688 0.19531 5.9531-0.027344 1.1641 0.46094 5.0664 1.8828 10.09 2.3359 2.0547 0.14453 2.3203-2.8906 0.28125-3.1133-1.6172-0.14453-3.1172-0.40625-4.4219-0.69922 1.2109-0.44922 3.0703-1.2773 2.2383-2.8711-0.41016-0.76172-1.3594-1.0469-2.1172-0.63281-4.9922 2.6953-11.348 2.207-15.801 1.3242-0.27344-0.054687-0.54297-0.11328-0.80859-0.17188 9.4141-2.0859 16.305-5.4336 22.043-8.2188 3.332-1.6172 6.207-3.0117 9.1133-3.9883 7.293-2.4648 15.312-3.1562 19.438-3.3477 2.3906-0.015625 3.8867-2.9531 2.4844-4.8906-4.168-6.6133-8.6016-14.094-2.543-18.199 4.2969-3.1523 9.4336-1.1953 10.613 3.1445l-1.6289 0.32031c-0.82031 0.16016-1.3711 0.94141-1.2422 1.7695l0.40625 2.6562c0.050781 0.33203 0.21094 0.64453 0.45312 0.87891-0.99219 0.71484-1.9219 1.1016-1.9297 1.1055-0.92969 0.34375-1.2852 1.5781-0.6875 2.3633z"/>
</svg>